<svg xmlns="http://www.w3.org/2000/svg" xmlns:xlink="http://www.w3.org/1999/xlink" width="500" zoomAndPan="magnify" viewBox="0 0 375 374.999991" height="500" preserveAspectRatio="xMidYMid meet" version="1.0"><defs><g/><clipPath id="6dc7e054e0"><path d="M 8.65625 8.65625 L 366.34375 8.65625 L 366.34375 366.34375 L 8.65625 366.34375 Z M 8.65625 8.65625 " clip-rule="nonzero"/></clipPath><clipPath id="900a3d3615"><path d="M 187.5 366.34375 C 139.75 366.34375 94.789062 347.757812 61.050781 313.949219 C 27.242188 280.210938 8.65625 235.25 8.65625 187.5 C 8.65625 139.75 27.242188 94.789062 61.050781 61.050781 C 94.789062 27.242188 139.75 8.65625 187.5 8.65625 C 235.25 8.65625 280.210938 27.242188 313.949219 61.050781 C 347.757812 94.859375 366.34375 139.75 366.34375 187.5 C 366.34375 235.25 347.757812 280.210938 313.949219 313.949219 C 280.210938 347.757812 235.25 366.34375 187.5 366.34375 Z M 187.5 19.378906 C 142.609375 19.378906 100.363281 36.890625 68.628906 68.628906 C 36.890625 100.363281 19.378906 142.609375 19.378906 187.5 C 19.378906 232.390625 36.890625 274.636719 68.628906 306.371094 C 100.363281 338.109375 142.609375 355.621094 187.5 355.621094 C 232.390625 355.621094 274.636719 338.109375 306.371094 306.371094 C 338.109375 274.636719 355.621094 232.390625 355.621094 187.5 C 355.621094 142.609375 338.109375 100.363281 306.371094 68.628906 C 274.636719 36.890625 232.390625 19.378906 187.5 19.378906 Z M 187.5 19.378906 " clip-rule="nonzero"/></clipPath></defs><g clip-path="url(#6dc7e054e0)"><g clip-path="url(#900a3d3615)"><path fill="#000000" d="M 8.65625 8.65625 L 366.34375 8.65625 L 366.34375 366.34375 L 8.65625 366.34375 Z M 8.65625 8.65625 " fill-opacity="1" fill-rule="nonzero"/></g></g><g fill="#000000" fill-opacity="1"><g transform="translate(105.441588, 212.94612)"><g><path d="M -3.234375 21.640625 C 0.210938 21.117188 3.035156 20.035156 5.234375 18.390625 C 7.441406 16.753906 9.148438 13.90625 10.359375 9.84375 C 11.566406 5.78125 12.171875 0.125 12.171875 -7.125 L 12.171875 -77.984375 C 12.171875 -81.265625 11.929688 -83.640625 11.453125 -85.109375 C 10.984375 -86.578125 10.144531 -87.570312 8.9375 -88.09375 C 7.726562 -88.613281 5.742188 -88.957031 2.984375 -89.125 L 2.984375 -91.71875 C 7.640625 -91.457031 14.847656 -91.328125 24.609375 -91.328125 C 34.710938 -91.328125 42.398438 -91.457031 47.671875 -91.71875 L 47.671875 -89.125 C 44.910156 -88.957031 42.898438 -88.613281 41.640625 -88.09375 C 40.390625 -87.570312 39.546875 -86.578125 39.109375 -85.109375 C 38.679688 -83.640625 38.46875 -81.265625 38.46875 -77.984375 L 38.46875 -19.828125 C 38.46875 -14.816406 38.316406 -10.410156 38.015625 -6.609375 C 37.710938 -2.804688 37.128906 0.472656 36.265625 3.234375 C 34.191406 9.546875 29.832031 14.644531 23.1875 18.53125 C 16.539062 22.414062 7.734375 24.359375 -3.234375 24.359375 Z M -3.234375 21.640625 "/></g></g></g><g fill="#000000" fill-opacity="1"><g transform="translate(168.916294, 212.94612)"><g><path d="M 87.578125 -91.71875 C 86.972656 -82.132812 86.671875 -73.582031 86.671875 -66.0625 C 86.671875 -62.09375 86.800781 -58.984375 87.0625 -56.734375 L 84.078125 -56.734375 C 81.222656 -68.054688 77.550781 -76.21875 73.0625 -81.21875 C 68.570312 -86.226562 63.738281 -88.734375 58.5625 -88.734375 L 58.421875 -88.734375 L 58.421875 -14.640625 C 58.421875 -11.015625 58.785156 -8.378906 59.515625 -6.734375 C 60.253906 -5.097656 61.59375 -4 63.53125 -3.4375 C 65.476562 -2.875 68.570312 -2.59375 72.8125 -2.59375 L 72.8125 0 C 60.632812 -0.257812 51.175781 -0.390625 44.4375 -0.390625 C 38.300781 -0.390625 29.40625 -0.257812 17.75 0 L 17.75 -2.59375 C 21.976562 -2.59375 25.0625 -2.875 27 -3.4375 C 28.945312 -4 30.285156 -5.097656 31.015625 -6.734375 C 31.753906 -8.378906 32.125 -11.015625 32.125 -14.640625 L 32.125 -88.734375 L 32 -88.734375 C 26.726562 -88.734375 21.867188 -86.25 17.421875 -81.28125 C 12.972656 -76.320312 9.328125 -68.140625 6.484375 -56.734375 L 3.5 -56.734375 C 3.757812 -58.984375 3.890625 -62.09375 3.890625 -66.0625 C 3.890625 -73.582031 3.585938 -82.132812 2.984375 -91.71875 C 11.179688 -91.457031 25.300781 -91.328125 45.34375 -91.328125 C 65.289062 -91.328125 79.367188 -91.457031 87.578125 -91.71875 Z M 87.578125 -91.71875 "/></g></g></g><path stroke-linecap="round" transform="matrix(0.75, 0, 0, 0.75, 171.346488, 223.450298)" fill="none" stroke-linejoin="miter" d="M 3.501557 3.498561 L 107.548439 3.498561 " stroke="#000000" stroke-width="7" stroke-opacity="1" stroke-miterlimit="4"/><g fill="#000000" fill-opacity="1"><g transform="translate(143.513696, 254.462677)"><g><path d="M 25.0625 -18.40625 C 24.488281 -18.363281 24.070312 -18.289062 23.8125 -18.1875 C 23.5625 -18.082031 23.390625 -17.878906 23.296875 -17.578125 C 23.210938 -17.273438 23.171875 -16.785156 23.171875 -16.109375 L 23.171875 -2.828125 C 23.171875 -2.148438 23.21875 -1.660156 23.3125 -1.359375 C 23.40625 -1.054688 23.578125 -0.851562 23.828125 -0.75 C 24.078125 -0.644531 24.488281 -0.570312 25.0625 -0.53125 L 25.0625 0 C 23.976562 -0.0507812 22.398438 -0.078125 20.328125 -0.078125 C 18.171875 -0.078125 16.582031 -0.0507812 15.5625 0 L 15.5625 -0.53125 C 16.207031 -0.570312 16.675781 -0.644531 16.96875 -0.75 C 17.269531 -0.851562 17.472656 -1.054688 17.578125 -1.359375 C 17.679688 -1.660156 17.734375 -2.148438 17.734375 -2.828125 L 17.734375 -16.5 L 11.28125 -0.03125 L 10.859375 -0.03125 L 3.3125 -17.203125 L 3.3125 -5.25 C 3.3125 -3.925781 3.363281 -2.972656 3.46875 -2.390625 C 3.582031 -1.816406 3.820312 -1.394531 4.1875 -1.125 C 4.550781 -0.851562 5.160156 -0.65625 6.015625 -0.53125 L 6.015625 0 C 5.285156 -0.0507812 4.285156 -0.078125 3.015625 -0.078125 C 2.078125 -0.078125 1.335938 -0.0507812 0.796875 0 L 0.796875 -0.53125 C 1.347656 -0.65625 1.757812 -0.847656 2.03125 -1.109375 C 2.300781 -1.367188 2.476562 -1.765625 2.5625 -2.296875 C 2.65625 -2.835938 2.703125 -3.640625 2.703125 -4.703125 L 2.703125 -16.109375 C 2.703125 -16.785156 2.648438 -17.273438 2.546875 -17.578125 C 2.453125 -17.878906 2.28125 -18.082031 2.03125 -18.1875 C 1.78125 -18.289062 1.367188 -18.363281 0.796875 -18.40625 L 0.796875 -18.9375 C 1.335938 -18.882812 2.078125 -18.859375 3.015625 -18.859375 C 5.160156 -18.859375 7.007812 -18.882812 8.5625 -18.9375 L 13.609375 -7.5625 L 18 -18.859375 L 20.328125 -18.859375 C 22.398438 -18.859375 23.976562 -18.882812 25.0625 -18.9375 Z M 25.0625 -18.40625 "/></g></g></g><g fill="#000000" fill-opacity="1"><g transform="translate(169.326484, 254.462677)"><g><path d="M 8.90625 -2.546875 C 10.207031 -2.546875 11.285156 -3.140625 12.140625 -4.328125 L 12.59375 -4.171875 C 12.207031 -2.921875 11.546875 -1.847656 10.609375 -0.953125 C 9.671875 -0.0664062 8.472656 0.375 7.015625 0.375 C 5.140625 0.375 3.640625 -0.203125 2.515625 -1.359375 C 1.390625 -2.523438 0.828125 -4.378906 0.828125 -6.921875 C 0.828125 -9.367188 1.453125 -11.203125 2.703125 -12.421875 C 3.960938 -13.640625 5.628906 -14.25 7.703125 -14.25 C 11.078125 -14.25 12.765625 -12.253906 12.765625 -8.265625 L 5.859375 -8.265625 C 5.835938 -8.046875 5.828125 -7.722656 5.828125 -7.296875 C 5.828125 -5.585938 6.125 -4.367188 6.71875 -3.640625 C 7.320312 -2.910156 8.050781 -2.546875 8.90625 -2.546875 Z M 7.515625 -13.640625 C 6.515625 -13.640625 5.925781 -12.019531 5.75 -8.78125 L 8.859375 -8.78125 C 8.867188 -10.195312 8.765625 -11.359375 8.546875 -12.265625 C 8.328125 -13.179688 7.984375 -13.640625 7.515625 -13.640625 Z M 7.515625 -13.640625 "/></g></g></g><g fill="#000000" fill-opacity="1"><g transform="translate(182.781234, 254.462677)"><g><path d="M 14.359375 -2.9375 C 14.359375 -2.125 14.46875 -1.53125 14.6875 -1.15625 C 14.914062 -0.78125 15.304688 -0.59375 15.859375 -0.59375 L 15.859375 -0.03125 C 15.304688 -0.0820312 14.753906 -0.109375 14.203125 -0.109375 C 12.347656 -0.109375 10.796875 0.015625 9.546875 0.265625 L 9.546875 -1.625 C 9.171875 -0.9375 8.726562 -0.429688 8.21875 -0.109375 C 7.71875 0.210938 7.070312 0.375 6.28125 0.375 C 4.644531 0.375 3.328125 -0.234375 2.328125 -1.453125 C 1.328125 -2.679688 0.828125 -4.539062 0.828125 -7.03125 C 0.828125 -9.40625 1.359375 -11.203125 2.421875 -12.421875 C 3.484375 -13.640625 4.929688 -14.25 6.765625 -14.25 C 7.910156 -14.25 8.835938 -14.03125 9.546875 -13.59375 L 9.546875 -17.703125 C 9.546875 -18.523438 9.429688 -19.125 9.203125 -19.5 C 8.984375 -19.875 8.597656 -20.0625 8.046875 -20.0625 L 8.046875 -20.625 C 8.597656 -20.570312 9.148438 -20.546875 9.703125 -20.546875 C 11.566406 -20.546875 13.117188 -20.671875 14.359375 -20.921875 Z M 7.625 -1.015625 C 8.144531 -1.015625 8.59375 -1.195312 8.96875 -1.5625 C 9.351562 -1.925781 9.546875 -2.382812 9.546875 -2.9375 L 9.546875 -13.03125 C 9.160156 -13.257812 8.742188 -13.375 8.296875 -13.375 C 7.453125 -13.375 6.828125 -12.84375 6.421875 -11.78125 C 6.023438 -10.71875 5.828125 -9.109375 5.828125 -6.953125 C 5.828125 -4.765625 5.988281 -3.226562 6.3125 -2.34375 C 6.632812 -1.457031 7.070312 -1.015625 7.625 -1.015625 Z M 7.625 -1.015625 "/></g></g></g><g fill="#000000" fill-opacity="1"><g transform="translate(199.071384, 254.462677)"><g><path d="M 4.3125 -20.921875 C 5.238281 -20.921875 5.953125 -20.722656 6.453125 -20.328125 C 6.960938 -19.929688 7.21875 -19.363281 7.21875 -18.625 C 7.21875 -17.875 6.960938 -17.300781 6.453125 -16.90625 C 5.953125 -16.507812 5.238281 -16.3125 4.3125 -16.3125 C 3.363281 -16.3125 2.640625 -16.507812 2.140625 -16.90625 C 1.640625 -17.300781 1.390625 -17.875 1.390625 -18.625 C 1.390625 -19.363281 1.640625 -19.929688 2.140625 -20.328125 C 2.640625 -20.722656 3.363281 -20.921875 4.3125 -20.921875 Z M 6.875 -2.484375 C 6.875 -1.753906 6.984375 -1.25 7.203125 -0.96875 C 7.429688 -0.695312 7.820312 -0.5625 8.375 -0.5625 L 8.375 0 C 6.445312 -0.0703125 5.179688 -0.109375 4.578125 -0.109375 C 3.972656 -0.109375 2.632812 -0.0703125 0.5625 0 L 0.5625 -0.5625 C 1.113281 -0.5625 1.5 -0.695312 1.71875 -0.96875 C 1.945312 -1.25 2.0625 -1.753906 2.0625 -2.484375 L 2.0625 -10.96875 C 2.0625 -11.789062 1.945312 -12.390625 1.71875 -12.765625 C 1.5 -13.140625 1.113281 -13.328125 0.5625 -13.328125 L 0.5625 -13.890625 C 1.132812 -13.828125 1.6875 -13.796875 2.21875 -13.796875 C 4.070312 -13.796875 5.625 -13.921875 6.875 -14.171875 Z M 6.875 -2.484375 "/></g></g></g><g fill="#000000" fill-opacity="1"><g transform="translate(207.898563, 254.462677)"><g><path d="M 4.046875 0.1875 C 2.898438 0.1875 2.035156 -0.117188 1.453125 -0.734375 C 0.878906 -1.347656 0.59375 -2.117188 0.59375 -3.046875 C 0.59375 -3.847656 0.800781 -4.507812 1.21875 -5.03125 C 1.632812 -5.5625 2.128906 -5.96875 2.703125 -6.25 C 3.273438 -6.539062 4.015625 -6.835938 4.921875 -7.140625 C 5.878906 -7.460938 6.582031 -7.753906 7.03125 -8.015625 C 7.476562 -8.285156 7.703125 -8.664062 7.703125 -9.15625 L 7.703125 -11.53125 C 7.703125 -12.101562 7.554688 -12.609375 7.265625 -13.046875 C 6.984375 -13.492188 6.5 -13.71875 5.8125 -13.71875 C 5.25 -13.71875 4.75 -13.566406 4.3125 -13.265625 C 4.914062 -13.054688 5.363281 -12.738281 5.65625 -12.3125 C 5.945312 -11.894531 6.09375 -11.425781 6.09375 -10.90625 C 6.09375 -10.21875 5.847656 -9.660156 5.359375 -9.234375 C 4.867188 -8.816406 4.273438 -8.609375 3.578125 -8.609375 C 2.890625 -8.609375 2.34375 -8.828125 1.9375 -9.265625 C 1.539062 -9.703125 1.34375 -10.257812 1.34375 -10.9375 C 1.34375 -11.476562 1.472656 -11.941406 1.734375 -12.328125 C 2.003906 -12.722656 2.425781 -13.082031 3 -13.40625 C 4 -13.96875 5.425781 -14.25 7.28125 -14.25 C 8.257812 -14.25 9.101562 -14.15625 9.8125 -13.96875 C 10.53125 -13.789062 11.140625 -13.441406 11.640625 -12.921875 C 11.992188 -12.546875 12.226562 -12.078125 12.34375 -11.515625 C 12.457031 -10.953125 12.515625 -10.171875 12.515625 -9.171875 L 12.515625 -2 C 12.515625 -1.5625 12.546875 -1.257812 12.609375 -1.09375 C 12.671875 -0.9375 12.785156 -0.859375 12.953125 -0.859375 C 13.078125 -0.859375 13.207031 -0.894531 13.34375 -0.96875 C 13.488281 -1.050781 13.625 -1.144531 13.75 -1.25 L 14.015625 -0.796875 C 13.242188 -0.140625 12.148438 0.1875 10.734375 0.1875 C 9.660156 0.1875 8.910156 0.00390625 8.484375 -0.359375 C 8.054688 -0.722656 7.820312 -1.21875 7.78125 -1.84375 C 6.945312 -0.488281 5.703125 0.1875 4.046875 0.1875 Z M 6.71875 -1.953125 C 7.09375 -1.953125 7.421875 -2.101562 7.703125 -2.40625 L 7.703125 -8.046875 C 7.546875 -7.785156 7.253906 -7.441406 6.828125 -7.015625 C 6.335938 -6.546875 5.96875 -6.09375 5.71875 -5.65625 C 5.46875 -5.21875 5.34375 -4.625 5.34375 -3.875 C 5.34375 -2.59375 5.800781 -1.953125 6.71875 -1.953125 Z M 6.71875 -1.953125 "/></g></g></g><g fill="#000000" fill-opacity="1"><g transform="translate(222.102279, 254.462677)"><g/></g></g><g fill="#000000" fill-opacity="1"><g transform="translate(228.067303, 254.462677)"><g><path d="M 17.125 -2.25 C 17.351562 -1.675781 17.601562 -1.25 17.875 -0.96875 C 18.15625 -0.695312 18.429688 -0.550781 18.703125 -0.53125 L 18.703125 0 C 17.410156 -0.0507812 15.785156 -0.078125 13.828125 -0.078125 C 11.796875 -0.078125 10.296875 -0.0507812 9.328125 0 L 9.328125 -0.53125 C 10.015625 -0.570312 10.5 -0.65625 10.78125 -0.78125 C 11.0625 -0.914062 11.203125 -1.15625 11.203125 -1.5 C 11.203125 -1.820312 11.097656 -2.25 10.890625 -2.78125 L 9.3125 -7.171875 L 3.90625 -7.171875 L 3.453125 -5.96875 C 2.859375 -4.445312 2.5625 -3.285156 2.5625 -2.484375 C 2.5625 -1.753906 2.765625 -1.253906 3.171875 -0.984375 C 3.585938 -0.722656 4.195312 -0.570312 5 -0.53125 L 5 0 C 3.664062 -0.0507812 2.5 -0.078125 1.5 -0.078125 C 0.65625 -0.078125 -0.03125 -0.0507812 -0.5625 0 L -0.5625 -0.53125 C -0.113281 -0.601562 0.300781 -0.878906 0.6875 -1.359375 C 1.082031 -1.847656 1.488281 -2.617188 1.90625 -3.671875 L 7.84375 -18.9375 C 8.40625 -18.90625 8.875 -18.890625 9.25 -18.890625 C 9.613281 -18.890625 10.078125 -18.90625 10.640625 -18.9375 Z M 9.125 -7.703125 L 6.6875 -14.390625 L 4.125 -7.703125 Z M 9.125 -7.703125 "/></g></g></g><g fill="#000000" fill-opacity="1"><g transform="translate(246.577614, 254.462677)"><g><path d="M 10.734375 -9.921875 C 12.472656 -9.835938 13.910156 -9.5625 15.046875 -9.09375 C 16.179688 -8.632812 17.003906 -8.0625 17.515625 -7.375 C 18.035156 -6.6875 18.296875 -5.957031 18.296875 -5.1875 C 18.296875 -3.4375 17.597656 -2.132812 16.203125 -1.28125 C 14.816406 -0.425781 12.835938 0 10.265625 0 C 9.753906 0 9.320312 -0.0078125 8.96875 -0.03125 C 7.75 -0.0625 6.5625 -0.078125 5.40625 -0.078125 C 3.320312 -0.078125 1.769531 -0.0507812 0.75 0 L 0.75 -0.53125 C 1.320312 -0.570312 1.734375 -0.644531 1.984375 -0.75 C 2.242188 -0.851562 2.414062 -1.054688 2.5 -1.359375 C 2.59375 -1.660156 2.640625 -2.148438 2.640625 -2.828125 L 2.640625 -16.109375 C 2.640625 -16.785156 2.59375 -17.273438 2.5 -17.578125 C 2.40625 -17.878906 2.234375 -18.082031 1.984375 -18.1875 C 1.734375 -18.289062 1.320312 -18.363281 0.75 -18.40625 L 0.75 -18.9375 C 1.769531 -18.882812 3.300781 -18.859375 5.34375 -18.859375 L 8.421875 -18.890625 C 8.785156 -18.898438 9.195312 -18.90625 9.65625 -18.90625 C 12.007812 -18.90625 13.804688 -18.523438 15.046875 -17.765625 C 16.285156 -17.015625 16.90625 -16 16.90625 -14.71875 C 16.90625 -14.050781 16.671875 -13.382812 16.203125 -12.71875 C 15.742188 -12.050781 15.050781 -11.46875 14.125 -10.96875 C 13.195312 -10.46875 12.066406 -10.140625 10.734375 -9.984375 Z M 9.515625 -18.40625 C 9.109375 -18.40625 8.800781 -18.34375 8.59375 -18.21875 C 8.394531 -18.09375 8.257812 -17.867188 8.1875 -17.546875 C 8.113281 -17.222656 8.078125 -16.742188 8.078125 -16.109375 L 8.078125 -10.0625 L 8.796875 -10.0625 C 9.765625 -10.0625 10.4375 -10.457031 10.8125 -11.25 C 11.195312 -12.039062 11.390625 -13.097656 11.390625 -14.421875 C 11.390625 -15.773438 11.242188 -16.773438 10.953125 -17.421875 C 10.660156 -18.078125 10.179688 -18.40625 9.515625 -18.40625 Z M 9.8125 -0.609375 C 11.71875 -0.609375 12.671875 -2.171875 12.671875 -5.296875 C 12.671875 -6.703125 12.332031 -7.769531 11.65625 -8.5 C 10.976562 -9.238281 9.910156 -9.609375 8.453125 -9.609375 L 8.078125 -9.609375 L 8.078125 -2.828125 C 8.078125 -2.191406 8.117188 -1.722656 8.203125 -1.421875 C 8.296875 -1.117188 8.460938 -0.90625 8.703125 -0.78125 C 8.941406 -0.664062 9.3125 -0.609375 9.8125 -0.609375 Z M 9.8125 -0.609375 "/></g></g></g></svg>